<svg width="64" height="64" viewBox="0 0 64 64" fill="none" xmlns="http://www.w3.org/2000/svg">
<g clip-path="url(#clip0_919_701)">
<circle cx="31.7859" cy="32.2146" r="30.0671" fill="white"/>
<mask id="mask0_919_701" style="mask-type:luminance" maskUnits="userSpaceOnUse" x="0" y="0" width="64" height="64">
<path d="M64 0H0V64H64V0Z" fill="white"/>
</mask>
<g mask="url(#mask0_919_701)">
<path d="M19.4297 35.7727C23.0195 35.7727 25.9297 32.9043 25.9297 29.3659C25.9297 25.8274 23.0195 22.959 19.4297 22.959C15.8398 22.959 12.9297 25.8274 12.9297 29.3659C12.9297 32.9043 15.8398 35.7727 19.4297 35.7727Z" fill="white"/>
<path d="M45.7789 9.87891H25.5156V45.3279H45.7789V9.87891Z" fill="white"/>
<path d="M49.331 20.7158H43.4531V38.0533H49.331V20.7158Z" fill="white"/>
<path d="M45.7484 12.4809L45.8594 6.11816L32.216 5.87984L32.105 12.2426L45.7484 12.4809Z" fill="white"/>
<path d="M38.9314 12.5692L39.0078 8.18555L29.6083 8.02135L29.5318 12.405L38.9314 12.5692Z" fill="white"/>
<path d="M25.1506 56.2357C30.5624 56.2357 34.9495 49.3573 34.9495 40.8723C34.9495 32.3872 30.5624 25.5088 25.1506 25.5088C19.7387 25.5088 15.3516 32.3872 15.3516 40.8723C15.3516 49.3573 19.7387 56.2357 25.1506 56.2357Z" fill="white"/>
<path d="M30.8011 40.0873C36.3392 40.0873 40.8287 33.2234 40.8287 24.7565C40.8287 16.2896 36.3392 9.42578 30.8011 9.42578C25.263 9.42578 20.7734 16.2896 20.7734 24.7565C20.7734 33.2234 25.263 40.0873 30.8011 40.0873Z" fill="white"/>
<path d="M43.0082 3.30114C42.1171 3.78674 41.4025 3.9545 39.0822 4.26351C32.7742 5.08462 28.063 7.24777 24.6047 10.8765C21.7286 13.9049 20.9345 15.7502 20.7845 19.7145C20.6787 22.5928 20.6169 22.893 20.0523 22.893C19.4082 22.893 19.3289 22.2749 19.4789 18.4166C19.5582 16.4124 19.5671 14.7702 19.4876 14.7702C19.4082 14.7702 18.6407 15.4677 17.7849 16.3153C11.768 22.2926 10.3388 31.5014 14.2472 39.2269L15.3146 41.3459V44.5332C15.297 51.8967 16.4351 53.7508 23.4666 57.9448C27.119 60.1168 27.7984 60.6815 28.4159 61.9886C29.3864 64.037 31.3803 63.0919 30.8597 60.8316C30.5333 59.4194 30.5862 59.2427 31.5303 58.4304C32.8536 57.2913 32.9242 55.9229 31.7155 54.766C31.0979 54.1746 31.0538 53.689 31.5391 52.7355C32.2008 51.4376 33.1624 50.9166 36.7178 49.9278C43.2552 48.109 47.3929 44.7981 50.2337 39.1386C53.5951 32.4284 53.0657 24.2527 48.9192 18.655C48.2752 17.7986 47.9399 17.1011 47.5694 15.8738C47.3047 14.9644 47.0224 14.1345 46.9518 14.0197C46.8724 13.8961 46.7665 12.5276 46.696 10.9736C46.5371 7.12416 46.0607 5.4113 44.7462 3.91035C43.9522 3.00094 43.7228 2.92148 43.0082 3.30114ZM43.5993 7.9276C43.961 9.76404 43.9698 11.2297 43.6081 12.969C43.264 14.6554 43.317 14.6112 42.523 13.852C39.294 10.7529 34.5651 10.85 32.4742 14.055C32.1037 14.6201 31.442 15.3529 31.0097 15.6796C27.9836 17.9663 29.6334 22.5751 34.2299 24.6765C34.6886 24.8795 34.8916 25.1886 34.574 25.1886C34.4946 25.1886 33.6829 25.683 32.7654 26.2922C29.6246 28.3847 28.9982 28.2964 26.0515 25.3563C22.6108 21.9306 22.9019 16.2711 26.7132 12.3951C30.2598 8.80165 35.6062 6.84161 42.8494 6.49727C43.2905 6.47077 43.3258 6.54144 43.5993 7.9276ZM38.4558 14.5495C40.6261 15.5118 41.4907 17.6661 40.3791 19.3702C39.6028 20.5709 36.7002 23.4228 36.259 23.4228C35.8091 23.4228 34.5387 21.4538 34.8122 21.1802C36.1003 19.8999 36.0649 17.6573 34.7416 16.1475C34.0799 15.3971 34.0711 15.2999 34.5828 14.8143C35.4562 13.9844 36.956 13.8872 38.4558 14.5495ZM42.7611 21.7893C42.126 23.0254 40.8996 25.0737 40.0262 26.3364C37.75 29.6296 39.1317 27.4678 38.5904 28.4739C38.2036 28.861 37.9716 29.1706 37.4302 29.8671C37.2756 30.0993 37.2031 30.1858 37.0354 30.3536C36.859 30.5302 37.1982 30.3316 36.9662 30.4089C37.0985 30.0558 37.1862 30.3498 36.6568 30.6412C36.4248 30.9508 36.7341 30.5637 36.5021 30.7959C36.3474 31.0281 36.4973 30.8392 36.3296 31.0334C36.2149 31.1659 35.9679 31.4661 35.7826 31.6956C35.4033 32.1548 36.0183 31.466 35.342 32.1117C34.843 32.7313 35.8532 31.838 35.1298 32.562C35.7711 32.3443 35.1938 31.8229 34.9203 32.0347C34.5145 32.3526 34.9406 33.1407 35.1523 33.2731C35.6816 33.6086 35.3002 33.7208 35.2297 33.0409C35.2208 32.9791 34.9406 33.5739 35.1523 33.5827C35.4611 33.5916 35.4705 33.739 35.4617 33.3505C35.444 33.0857 35.0817 33.2731 35.1523 33.2731C35.2317 33.2731 34.8386 31.9605 34.821 32.2607C34.7945 32.8434 33.9035 33.8323 33.5241 33.7087C33.3212 33.638 33.2241 33.8764 33.2859 34.2473C33.3036 34.3355 33.6212 34.309 33.5241 34.2473C33.4359 34.1854 33.9393 33.7152 33.9922 33.5827C34.0451 33.4503 33.0653 33.6469 32.9594 33.585C32.8536 33.5144 32.7742 33.6027 32.7742 33.7617C32.7742 33.9912 32.7213 34.0177 32.536 33.8676C32.3595 33.7175 32.3066 33.7263 32.3066 33.9118C32.3066 34.415 31.839 35.2714 31.6096 35.1831C31.4685 35.1301 31.2235 36.365 31.2853 36.5239C31.3735 36.7535 32.2237 36.3624 31.8267 36.2917C31.7385 36.2741 31.3498 36.4634 31.4115 36.5605C31.4909 36.6841 31.5579 36.1608 31.9813 35.9047C32.6254 35.5163 32.28 35.1831 31.4684 36.0131C30.6832 36.7989 30.8155 36.8294 30.7272 36.9179C30.6388 37.0063 30.5946 37.0505 30.5063 37.1389C30.4276 37.2177 30.3737 37.2716 30.3295 37.3158C30.2995 37.3458 30.0792 37.5222 30.0203 37.5811C29.9761 37.6253 29.8295 37.7464 29.7552 37.8022C29.6875 37.8529 29.6401 37.8997 29.4901 38.0233C29.4393 38.0647 29.3318 38.1522 29.2452 38.2204C29.1587 38.2885 28.3983 38.8737 26.8632 40.2952C25.8398 41.2487 25.5751 41.4342 30.8332 37.514C35.2092 34.2561 38.5617 31.1747 40.8379 28.3229C41.826 27.0868 41.9407 27.0427 41.3143 28.1463C40.3527 29.8327 37.9755 33.0605 37.8627 33.2037C37.7546 33.3258 37.8535 33.2384 37.6417 33.469C37.5092 33.5574 37.5092 33.5626 37.465 33.6016C37.4356 33.6276 37.465 33.6016 37.3325 33.7343C37.3325 33.7343 37.2441 33.7785 37.1557 33.9112C37.1317 33.9472 37.0232 34.0438 36.8061 34.309C36.1346 35.0533 31.707 40.0839 30.7016 41.0127C30.4842 41.1626 29.9538 41.6141 29.7773 41.7817C29.6444 41.9237 28.2395 43.1293 27.9395 43.0852C27.8336 43.0764 27.6219 43.0146 27.4719 42.9528C27.0926 42.7938 24.979 44.286 25.1113 44.6303C25.1643 44.7716 25.4227 44.6656 25.5198 44.6038C25.6344 44.5332 26.0692 44.4714 25.9898 44.6038C25.8927 44.7628 26.4255 43.9315 26.2931 43.7991C26.002 43.5077 25.1517 44.3919 24.5694 44.8952C24.2782 45.1512 23.643 45.6633 23.1578 46.0253C22.1697 46.767 20.7316 48.2591 19.5494 49.7777C18.676 50.8902 18.5525 50.8814 18.3319 49.7071C17.732 46.4668 19.9641 42.3171 23.7312 39.686C24.34 39.2622 24.834 38.8825 24.834 38.8472C24.834 38.6177 21.9844 40.3747 21.2345 41.0545C20.9522 41.3106 21.0462 41.1641 20.8695 41.2967C20.7369 41.3852 20.8146 41.3481 20.6734 41.4275C20.5588 41.4982 20.6427 41.4372 20.5102 41.5256C20.5102 41.5256 20.4534 41.5645 20.4121 41.591C20.2886 41.6705 20.3717 41.661 20.2781 41.7374C20.1897 41.8259 20.1509 41.8525 20.1455 41.87C20.013 41.9585 20.013 41.9585 19.8935 42.0698C19.8362 42.1354 19.955 42.0165 19.7479 42.2238C19.6595 42.3122 19.7037 42.268 19.5711 42.4007C19.3502 42.6659 19.3483 42.5555 19.1293 42.887C18.9948 43.086 18.9968 43.0639 18.9084 43.1965C18.7317 43.4176 18.7785 43.3618 18.6433 43.5503C18.4492 43.7622 18.1731 44.3389 17.9878 44.7628L17.6438 45.5221L17.5203 44.8599C17.3614 44.0034 17.5555 41.4518 17.8908 40.1186C18.6583 37.0549 19.7523 36.0925 26.0074 32.9847C35.1033 28.4553 39.8233 24.9943 43.0876 20.465C44.0757 19.0788 44.0139 19.3083 42.7611 21.7893ZM47.2429 27.6342V33.5939L47.8429 34.1766C49.3162 35.6069 48.5134 37.7259 46.4842 37.7259C44.4374 37.7259 43.714 34.9977 45.4785 33.9559L46.0078 33.6469V27.749C46.0078 21.3832 46.0607 21.03 46.8989 21.4892C47.2253 21.6658 47.2429 21.9218 47.2429 27.6342ZM19.7788 25.4357C20.5199 25.736 21.4462 26.8572 21.5874 27.6077C22.0638 30.1329 19.1259 32.0312 17.0879 30.5213C14.3354 28.4907 16.6556 24.1203 19.7788 25.4357ZM41.4996 34.1502C43.4669 37.1255 41.4378 40.2246 34.0976 45.4426C28.4159 49.4775 26.6691 51.7996 26.378 55.7111L26.3427 56.1256L25.928 55.6401C25.7074 55.3756 25.5836 54.9204 25.5851 54.9302C25.5836 54.9204 25.5236 54.7676 25.5198 54.734C25.4909 54.7026 24.7811 52.9209 24.9046 51.7731C25.1604 49.2568 26.5191 47.5969 30.8421 44.5332C36.6737 40.4011 38.3588 38.7148 40.035 35.342C41.1026 33.1878 40.9526 33.3114 41.4996 34.1502Z" fill="#4F39F6"/>
<path d="M45.9874 34.9833C45.3787 35.7162 46.4991 36.8816 47.2049 36.2371C47.6107 35.8751 47.6813 35.2659 47.3549 34.9392C47.0637 34.6478 46.2433 34.6743 45.9874 34.9833Z" fill="#4F39F6"/>
<path d="M17.7658 26.71C17.307 27.0897 17.2188 27.2928 17.2188 27.955C17.2188 29.8886 19.5832 30.383 20.3331 28.6083C21.0389 26.9131 19.1597 25.527 17.7658 26.71Z" fill="#4F39F6"/>
<path d="M32.8585 33.1508L29.4062 36.0498L30.3718 37.2014L33.8241 34.3024L32.8585 33.1508Z" fill="white"/>
<path d="M35.6874 29.9677L32.6719 33.3193L33.7882 34.3253L36.8037 30.9737L35.6874 29.9677Z" fill="white"/>
<path d="M39.1346 27.1183L37.8359 29.1982L38.0441 29.3284L39.3428 27.2485L39.1346 27.1183Z" fill="white"/>
<path d="M37.7248 29.0839L36.4688 30.752L36.791 30.995L38.0471 29.3269L37.7248 29.0839Z" fill="white"/>
</g>
</g>
<defs>
<clipPath id="clip0_919_701">
<rect width="64" height="64" fill="white"/>
</clipPath>
</defs>
</svg>
