<svg width="494" height="67" viewBox="0 0 494 67" fill="none" xmlns="http://www.w3.org/2000/svg">
<g clip-path="url(#clip0_919_475)">
<mask id="mask0_919_475" style="mask-type:luminance" maskUnits="userSpaceOnUse" x="0" y="-12" width="495" height="78">
<path d="M494.667 -12H0V65.3333H494.667V-12Z" fill="white"/>
</mask>
<g mask="url(#mask0_919_475)">
<path d="M28.5208 45.82C22.5625 45.82 17.5 45.3825 13.3333 44.5075C9.17708 43.6325 6.02083 42.0439 3.85417 39.7367C1.69792 37.4346 0.625 34.1117 0.625 29.7783H16.8542C16.8542 30.4867 17.1563 31.1117 17.7708 31.6533C18.3958 32.195 19.5885 32.6117 21.3542 32.9033C23.1302 33.195 25.7292 33.3408 29.1458 33.3408C32.3385 33.3408 34.7292 33.2731 36.3125 33.1325C37.8958 32.9814 38.9375 32.7367 39.4375 32.4033C39.9375 32.07 40.1875 31.6325 40.1875 31.0908C40.1875 30.4658 39.9219 30.0023 39.3958 29.695C38.8802 29.3773 37.7917 29.1481 36.125 29.0075C34.4583 28.8564 31.9219 28.7367 28.5208 28.6533C21.9479 28.445 16.6667 27.8929 12.6667 26.9867C8.66667 26.07 5.76042 24.6273 3.95833 22.6533C2.15104 20.6689 1.25 17.9867 1.25 14.6117C1.25 9.79395 3.53125 6.30957 8.10417 4.15332C12.6875 1.98665 19.2813 0.90332 27.8958 0.90332C33.5885 0.90332 38.4063 1.40332 42.3542 2.40332C46.3125 3.3929 49.3333 5.00228 51.4167 7.23665C53.5 9.46061 54.5417 12.4398 54.5417 16.1742H38.3125C38.3125 15.0075 37.3542 14.2523 35.4375 13.9033C33.5208 13.5596 30.5885 13.3825 26.6458 13.3825C24.1042 13.3825 22.1719 13.4398 20.8542 13.5492C19.5469 13.6481 18.6563 13.8408 18.1875 14.1325C17.7135 14.4137 17.4792 14.8408 17.4792 15.4242C17.4792 15.9658 17.7344 16.3617 18.25 16.6117C18.7604 16.8617 19.8125 17.0283 21.3958 17.1117C22.9792 17.195 25.3542 17.2992 28.5208 17.4242C32.8385 17.5908 36.7135 17.8564 40.1458 18.2158C43.5729 18.5648 46.5 19.1742 48.9167 20.0492C51.3333 20.9242 53.1771 22.2106 54.4583 23.9033C55.75 25.5856 56.3958 27.8564 56.3958 30.7158C56.3958 34.7158 55.3125 37.8096 53.1458 39.9867C50.9896 42.1689 47.8438 43.6898 43.7083 44.5492C39.5677 45.3929 34.5052 45.82 28.5208 45.82Z" fill="#070C1F"/>
<path d="M58.2695 45.195V1.52832H74.4987V45.195H58.2695Z" fill="#070C1F"/>
<path d="M76.9844 45.195V1.52832H93.2135V31.4658H121.901V45.195H76.9844Z" fill="#070C1F"/>
<path d="M123.773 45.195V1.52832H140.003V18.6117L160.086 1.52832H183.169L158.023 22.1117L183.169 45.195H160.711L146.732 31.3408L140.003 36.9033V45.195H123.773Z" fill="#070C1F"/>
<path d="M185.031 45.195V1.52832H223.094C226.411 1.52832 229.01 1.99707 230.885 2.92415C232.76 3.85645 234.094 5.15332 234.885 6.81999C235.677 8.48665 236.073 10.4242 236.073 12.6325C236.073 14.0387 235.766 15.4398 235.156 16.8408C234.557 18.2314 233.719 19.5492 232.635 20.7992C234.552 22.1742 236.12 23.8408 237.344 25.7992C238.578 27.7471 239.198 29.9033 239.198 32.2783C239.198 34.6533 238.698 36.82 237.698 38.7783C236.698 40.7262 235.156 42.2783 233.073 43.445C230.99 44.6117 228.286 45.195 224.969 45.195H185.031ZM201.26 16.8617H216.219C217.052 16.8617 217.865 16.7575 218.656 16.5492C219.448 16.3408 219.844 15.6533 219.844 14.4867C219.844 13.2939 219.448 12.6064 218.656 12.4242C217.865 12.2314 217.052 12.1325 216.219 12.1325H201.26V16.8617ZM201.26 33.3408H219.344C220.177 33.3408 220.99 33.2523 221.781 33.07C222.573 32.8773 222.969 32.195 222.969 31.0283C222.969 29.8617 222.573 29.1898 221.781 29.0075C220.99 28.8148 220.177 28.7158 219.344 28.7158H201.26V33.3408Z" fill="#070C1F"/>
<path d="M241.055 45.195V1.52832H257.284V45.195H241.055Z" fill="#070C1F"/>
<path d="M259.766 45.195V1.52832H280.974L299.828 27.2783V1.52832H316.036V45.195H294.828L275.995 19.4242V45.195H259.766Z" fill="#070C1F"/>
<path d="M317.906 45.195L335.99 1.52832H360.094L378.177 45.195H360.344L357.344 37.3408H338.74L335.76 45.195H317.906ZM342.99 26.1117H353.094L348.052 12.7575L342.99 26.1117Z" fill="#070C1F"/>
<path d="M380.047 45.195V1.52832H414.359C417.693 1.52832 420.599 2.24707 423.089 3.67415C425.589 5.10645 427.547 7.08561 428.964 9.61165C430.38 12.1273 431.089 15.0023 431.089 18.2367C431.089 21.4033 430.401 24.2471 429.026 26.7575C427.651 29.2731 425.755 31.2367 423.339 32.6533L431.089 45.195H411.859L405.818 34.9658H396.276V45.195H380.047ZM396.276 21.2367H411.234C411.776 21.2367 412.323 21.195 412.88 21.1117C413.448 21.0283 413.922 20.7783 414.297 20.3617C414.672 19.945 414.859 19.2367 414.859 18.2367C414.859 17.2367 414.672 16.5283 414.297 16.1117C413.922 15.695 413.448 15.445 412.88 15.3617C412.323 15.2783 411.776 15.2367 411.234 15.2367H396.276V21.2367Z" fill="#070C1F"/>
<path d="M454.529 45.195V30.8408L432.32 1.52832H451.029L462.654 17.7367L474.258 1.52832H492.966L470.758 30.8408V45.195H454.529Z" fill="#070C1F"/>
</g>
<mask id="mask1_919_475" style="mask-type:luminance" maskUnits="userSpaceOnUse" x="2" y="42" width="264" height="34">
<path d="M266 42H2V75.3333H266V42Z" fill="white"/>
</mask>
<g mask="url(#mask1_919_475)">
<path d="M10.2487 66.3958V53.6042H2.26953V47.75H25.1862V53.6042H17.1862V66.3958H10.2487Z" fill="#4F39F6"/>
<path d="M25.9883 66.3958V47.75H45.6966V53.0625H32.9049V54.8125H45.6966V59.3333H32.9049V61.0625H45.6966V66.3958H25.9883Z" fill="#4F39F6"/>
<path d="M57.9635 66.667C53.849 66.667 50.8646 65.8753 49.0052 64.292C47.1562 62.7087 46.2344 60.292 46.2344 57.042C46.2344 53.8076 47.1562 51.4066 49.0052 49.8337C50.8646 48.266 53.849 47.4795 57.9635 47.4795C61.6823 47.4795 64.5156 48.1618 66.4635 49.5212C68.4063 50.8857 69.4479 53.0368 69.5885 55.9795H62.5052C62.3802 55.0941 61.9531 54.4326 61.2344 54.0003C60.526 53.5576 59.4323 53.3337 57.9635 53.3337C56.5885 53.3337 55.5573 53.5107 54.8802 53.8545C54.1979 54.2035 53.7396 54.6618 53.5052 55.2295C53.2656 55.7868 53.151 56.391 53.151 57.042C53.151 57.6982 53.2656 58.3128 53.5052 58.8962C53.7396 59.4795 54.1979 59.9482 54.8802 60.292C55.5729 60.6253 56.599 60.792 57.9635 60.792C59.4323 60.792 60.526 60.5732 61.2344 60.1253C61.9531 59.667 62.3802 58.9951 62.5052 58.1045H69.5885C69.4479 61.0628 68.4063 63.2295 66.4635 64.6045C64.5313 65.9795 61.6979 66.667 57.9635 66.667Z" fill="#4F39F6"/>
<path d="M70.4062 66.3958V47.75H77.3229V54.1458H88.2604V47.75H95.1771V66.3958H88.2604V60H77.3229V66.3958H70.4062Z" fill="#4F39F6"/>
<path d="M96.25 66.3958V47.75H105.292L113.354 58.75V47.75H120.271V66.3958H111.208L103.167 55.3958V66.3958H96.25Z" fill="#4F39F6"/>
<path d="M132.811 66.667C128.697 66.667 125.712 65.8753 123.853 64.292C122.004 62.7087 121.082 60.292 121.082 57.042C121.082 53.8076 122.004 51.4066 123.853 49.8337C125.712 48.266 128.697 47.4795 132.811 47.4795C136.895 47.4795 139.863 48.266 141.728 49.8337C143.587 51.4066 144.52 53.8076 144.52 57.042C144.52 60.2816 143.587 62.6982 141.728 64.292C139.863 65.8753 136.895 66.667 132.811 66.667ZM132.811 60.792C134.171 60.792 135.191 60.6201 135.874 60.2712C136.566 59.9118 137.025 59.4482 137.249 58.8753C137.483 58.3076 137.603 57.6982 137.603 57.042C137.603 56.391 137.483 55.7868 137.249 55.2295C137.025 54.6618 136.566 54.2035 135.874 53.8545C135.191 53.5107 134.171 53.3337 132.811 53.3337C131.436 53.3337 130.405 53.5107 129.728 53.8545C129.046 54.2035 128.587 54.6618 128.353 55.2295C128.113 55.7868 127.999 56.391 127.999 57.042C127.999 57.6982 128.113 58.3128 128.353 58.8962C128.587 59.4795 129.046 59.9482 129.728 60.292C130.421 60.6253 131.447 60.792 132.811 60.792Z" fill="#4F39F6"/>
<path d="M145.332 66.3958V47.75H152.249V60.5417H164.499V66.3958H145.332Z" fill="#4F39F6"/>
<path d="M176.776 66.667C172.661 66.667 169.677 65.8753 167.818 64.292C165.969 62.7087 165.047 60.292 165.047 57.042C165.047 53.8076 165.969 51.4066 167.818 49.8337C169.677 48.266 172.661 47.4795 176.776 47.4795C180.859 47.4795 183.828 48.266 185.693 49.8337C187.552 51.4066 188.484 53.8076 188.484 57.042C188.484 60.2816 187.552 62.6982 185.693 64.292C183.828 65.8753 180.859 66.667 176.776 66.667ZM176.776 60.792C178.135 60.792 179.156 60.6201 179.839 60.2712C180.531 59.9118 180.99 59.4482 181.214 58.8753C181.448 58.3076 181.568 57.6982 181.568 57.042C181.568 56.391 181.448 55.7868 181.214 55.2295C180.99 54.6618 180.531 54.2035 179.839 53.8545C179.156 53.5107 178.135 53.3337 176.776 53.3337C175.401 53.3337 174.37 53.5107 173.693 53.8545C173.01 54.2035 172.552 54.6618 172.318 55.2295C172.078 55.7868 171.964 56.391 171.964 57.042C171.964 57.6982 172.078 58.3128 172.318 58.8962C172.552 59.4795 173.01 59.9482 173.693 60.292C174.385 60.6253 175.411 60.792 176.776 60.792Z" fill="#4F39F6"/>
<path d="M199.944 66.667C196.512 66.667 193.829 65.8753 191.902 64.292C189.986 62.7087 189.027 60.292 189.027 57.042C189.027 53.8076 190.017 51.4066 192.007 49.8337C193.991 48.266 196.908 47.4795 200.757 47.4795C208.215 47.4795 212.09 50.0524 212.382 55.1878H205.298C205.173 54.7035 204.746 54.2712 204.027 53.8962C203.319 53.5212 202.225 53.3337 200.757 53.3337C199.382 53.3337 198.35 53.516 197.673 53.8753C196.991 54.2243 196.533 54.6982 196.298 55.292C196.059 55.891 195.944 56.5628 195.944 57.3128C195.944 58.0628 196.059 58.766 196.298 59.417C196.533 60.0732 196.991 60.5993 197.673 61.0003C198.366 61.4066 199.392 61.6045 200.757 61.6045C202.074 61.6045 203.132 61.4951 203.923 61.2712C204.715 61.0368 205.173 60.6045 205.298 59.9795H200.298V56.2503H212.382V66.3962H208.402L207.882 63.7087C207.1 64.6253 206.074 65.3493 204.798 65.8753C203.517 66.4014 201.902 66.667 199.944 66.667Z" fill="#4F39F6"/>
<path d="M213.195 66.3958V47.75H220.112V66.3958H213.195Z" fill="#4F39F6"/>
<path d="M221.195 66.3958V47.75H240.904V53.0625H228.112V54.8125H240.904V59.3333H228.112V61.0625H240.904V66.3958H221.195Z" fill="#4F39F6"/>
<path d="M253.354 66.667C250.813 66.667 248.651 66.4795 246.875 66.1045C245.094 65.7295 243.74 65.0524 242.813 64.0628C241.896 63.0785 241.438 61.6618 241.438 59.8128H248.354C248.354 60.1201 248.484 60.391 248.75 60.6253C249.026 60.8493 249.542 61.0212 250.292 61.1462C251.042 61.2712 252.146 61.3337 253.604 61.3337C254.979 61.3337 256 61.3076 256.667 61.2503C257.344 61.1826 257.792 61.0785 258 60.9378C258.219 60.8024 258.333 60.6149 258.333 60.3753C258.333 60.1149 258.219 59.917 258 59.792C257.776 59.6566 257.302 59.5576 256.583 59.5003C255.875 59.4326 254.797 59.3753 253.354 59.3337C250.531 59.2503 248.271 59.016 246.563 58.6253C244.865 58.2243 243.63 57.6045 242.854 56.7712C242.089 55.9274 241.708 54.7816 241.708 53.3337C241.708 51.2816 242.677 49.792 244.625 48.8753C246.583 47.9482 249.401 47.4795 253.083 47.4795C255.51 47.4795 257.568 47.6982 259.25 48.1253C260.943 48.542 262.234 49.2295 263.125 50.1878C264.01 51.1357 264.458 52.4066 264.458 54.0003H257.521C257.521 53.5003 257.109 53.1826 256.292 53.042C255.484 52.891 254.234 52.8128 252.542 52.8128C251.458 52.8128 250.635 52.8337 250.083 52.8753C249.526 52.917 249.146 53.0003 248.938 53.1253C248.729 53.2503 248.625 53.4378 248.625 53.6878C248.625 53.9274 248.734 54.0993 248.958 54.2087C249.177 54.3076 249.625 54.3753 250.292 54.417C250.969 54.4482 251.99 54.4899 253.354 54.542C255.198 54.6149 256.854 54.7243 258.313 54.8753C259.781 55.0316 261.031 55.292 262.063 55.667C263.089 56.0316 263.875 56.5732 264.417 57.292C264.969 58.016 265.25 58.9899 265.25 60.2087C265.25 61.917 264.781 63.2399 263.854 64.167C262.938 65.0993 261.594 65.7503 259.833 66.1253C258.068 66.4847 255.906 66.667 253.354 66.667Z" fill="#4F39F6"/>
</g>
</g>
<defs>
<clipPath id="clip0_919_475">
<rect width="494" height="67" fill="white"/>
</clipPath>
</defs>
</svg>
