<svg width="1884" height="528" viewBox="0 0 1884 528" fill="none" xmlns="http://www.w3.org/2000/svg">
<g clip-path="url(#clip0_938_456)">
<mask id="mask0_938_456" style="mask-type:luminance" maskUnits="userSpaceOnUse" x="1657" y="31" width="216" height="215">
<path d="M1657.66 31H1872.16V245.021H1657.66V31Z" fill="white"/>
</mask>
<g mask="url(#mask0_938_456)">
<path d="M1872.09 195.24C1872.09 222.495 1850.04 244.552 1822.79 244.552H1721.8C1686.89 244.552 1658.55 216.203 1658.55 181.297V80.3073C1658.55 53.0573 1680.6 31 1707.85 31C1735.1 31 1757.16 53.0573 1757.16 80.3073V145.932H1822.79C1850.04 145.932 1872.09 168.083 1872.09 195.24Z" fill="#2B5B4D"/>
</g>
<mask id="mask1_938_456" style="mask-type:luminance" maskUnits="userSpaceOnUse" x="1543" y="145" width="215" height="214">
<path d="M1543.16 145.021H1757.67V359H1543.16V145.021Z" fill="white"/>
</mask>
<g mask="url(#mask1_938_456)">
<path d="M1543.26 194.604C1543.26 167.354 1565.32 145.297 1592.57 145.297H1693.55C1728.46 145.297 1756.8 173.641 1756.8 208.547V309.536C1756.8 336.786 1734.75 358.844 1707.5 358.844C1680.25 358.844 1658.19 336.786 1658.19 309.536V243.911H1592.57C1565.32 243.911 1543.26 221.854 1543.26 194.604Z" fill="#2B5B4D"/>
</g>
<path d="M1756.8 208.547V244.552H1721.8C1686.9 244.552 1658.55 216.203 1658.55 181.297V145.297H1693.55C1728.46 145.297 1756.8 173.641 1756.8 208.547Z" fill="#003934"/>
<mask id="mask2_938_456" style="mask-type:luminance" maskUnits="userSpaceOnUse" x="-9" y="161" width="1671" height="407">
<path d="M1661.67 161.021H-9V567.688H1661.67V161.021Z" fill="white"/>
</mask>
<g mask="url(#mask2_938_456)">
<path d="M91.6042 483.525H36V179.817H84.4583L189.208 321.4L294.604 179.817H343.063V483.525H287.458V268.921L196.563 393.088H181.604L91.6042 268.484V483.525Z" fill="black"/>
<path d="M619.039 364.734C619.039 367.556 618.961 370.234 618.81 372.775C618.669 375.306 618.372 378.728 617.914 383.046H438.602C440.544 395.546 444.529 406.192 450.56 414.984C456.586 423.765 464.065 430.499 472.997 435.192C481.924 439.874 491.674 442.213 502.247 442.213C515.94 442.213 527.029 439.499 535.518 434.067C544.003 428.64 550.185 421.082 554.06 411.4H613.018C610.185 421.666 605.523 431.562 599.039 441.088C592.565 450.619 584.643 459.067 575.268 466.442C565.893 473.817 555.133 479.661 542.997 483.963C530.872 488.28 517.664 490.442 503.372 490.442C486.091 490.442 470.195 487.28 455.685 480.963C441.169 474.629 428.586 465.879 417.935 454.713C407.294 443.546 399.039 430.598 393.164 415.859C387.289 401.124 384.352 385.421 384.352 368.754C384.352 351.921 387.289 336.181 393.164 321.525C399.039 306.859 407.294 293.942 417.935 282.775C428.586 271.609 441.169 262.869 455.685 256.546C470.195 250.213 486.091 247.046 503.372 247.046C520.633 247.046 536.372 250.171 550.581 256.421C564.799 262.671 577.008 271.27 587.206 282.213C597.414 293.161 605.268 305.702 610.768 319.838C616.279 333.978 619.039 348.942 619.039 364.734ZM440.831 341.275H563.872C563.133 332.64 559.935 324.786 554.268 317.713C548.612 310.645 541.32 304.952 532.393 300.629C523.461 296.312 513.711 294.15 503.143 294.15C494.06 294.15 485.352 295.832 477.018 299.192C468.685 302.541 461.352 307.681 455.018 314.609C448.695 321.525 443.966 330.416 440.831 341.275Z" fill="black"/>
<path d="M775.102 483.525H657.414V179.817H774.435C798.695 179.817 820.727 183.431 840.518 190.65C860.32 197.874 877.336 208.187 891.56 221.588C905.779 234.994 916.727 250.963 924.393 269.504C932.06 288.036 935.893 308.687 935.893 331.463C935.893 354.228 932.06 374.957 924.393 393.65C916.727 412.332 905.815 428.374 891.664 441.775C877.523 455.166 860.591 465.473 840.872 472.692C821.148 479.916 799.227 483.525 775.102 483.525ZM712.143 229.171V433.942H773.31C795.503 433.942 814.56 429.817 830.477 421.567C846.404 413.306 858.612 401.582 867.102 386.4C875.586 371.207 879.831 353.187 879.831 332.338C879.831 311.645 875.664 293.562 867.331 278.088C858.997 262.603 846.862 250.582 830.935 242.025C815.003 233.457 795.648 229.171 772.872 229.171H712.143Z" fill="black"/>
<path d="M1190.88 364.734C1190.88 367.556 1190.8 370.234 1190.65 372.775C1190.51 375.306 1190.22 378.728 1189.76 383.046H1010.45C1012.39 395.546 1016.37 406.192 1022.4 414.984C1028.43 423.765 1035.91 430.499 1044.84 435.192C1053.77 439.874 1063.52 442.213 1074.09 442.213C1087.78 442.213 1098.87 439.499 1107.36 434.067C1115.85 428.64 1122.03 421.082 1125.9 411.4H1184.86C1182.03 421.666 1177.37 431.562 1170.88 441.088C1164.41 450.619 1156.49 459.067 1147.11 466.442C1137.74 473.817 1126.98 479.661 1114.84 483.963C1102.72 488.28 1089.51 490.442 1075.22 490.442C1057.93 490.442 1042.04 487.28 1027.53 480.963C1013.01 474.629 1000.43 465.879 989.779 454.713C979.138 443.546 970.883 430.598 965.008 415.859C959.133 401.124 956.195 385.421 956.195 368.754C956.195 351.921 959.133 336.181 965.008 321.525C970.883 306.859 979.138 293.942 989.779 282.775C1000.43 271.609 1013.01 262.869 1027.53 256.546C1042.04 250.213 1057.93 247.046 1075.22 247.046C1092.48 247.046 1108.22 250.171 1122.42 256.421C1136.64 262.671 1148.85 271.27 1159.05 282.213C1169.26 293.161 1177.11 305.702 1182.61 319.838C1188.12 333.978 1190.88 348.942 1190.88 364.734ZM1012.67 341.275H1135.72C1134.98 332.64 1131.78 324.786 1126.11 317.713C1120.46 310.645 1113.16 304.952 1104.24 300.629C1095.3 296.312 1085.55 294.15 1074.99 294.15C1065.9 294.15 1057.2 295.832 1048.86 299.192C1040.53 302.541 1033.2 307.681 1026.86 314.609C1020.54 321.525 1015.81 330.416 1012.67 341.275Z" fill="black"/>
<path d="M1307.43 490.442C1290.6 490.442 1275.98 488.202 1263.55 483.734C1251.12 479.275 1240.84 473.254 1232.72 465.671C1224.6 458.077 1218.58 449.515 1214.64 439.984C1210.69 430.457 1208.72 420.629 1208.72 410.504L1260.53 410.734C1260.97 421.15 1265.14 429.895 1273.03 436.963C1280.92 444.036 1292.53 447.567 1307.86 447.567C1321.86 447.567 1332.18 444.895 1338.8 439.546C1345.43 434.187 1348.74 427.187 1348.74 418.546C1348.74 411.994 1346.88 406.853 1343.16 403.129C1339.43 399.411 1333.96 396.473 1326.74 394.317C1319.52 392.15 1310.7 390.327 1300.28 388.838C1289.27 387.353 1278.81 385.046 1268.91 381.921C1259 378.796 1250.25 374.484 1242.66 368.984C1235.07 363.473 1229.08 356.546 1224.7 348.213C1220.31 339.869 1218.11 329.744 1218.11 317.838C1218.11 303.687 1221.42 291.327 1228.03 280.754C1234.66 270.187 1244.41 261.931 1257.28 255.984C1270.17 250.025 1285.92 247.046 1304.53 247.046C1322.99 247.046 1339.18 250.14 1353.09 256.317C1367.01 262.484 1377.83 271.119 1385.57 282.213C1393.32 293.312 1397.2 306.15 1397.2 320.734L1344.28 320.296C1343.68 311.812 1340.07 304.853 1333.45 299.421C1326.82 293.978 1317.25 291.254 1304.74 291.254C1293.13 291.254 1284.64 293.749 1279.28 298.734C1273.93 303.723 1271.26 309.713 1271.26 316.713C1271.26 322.369 1272.52 326.942 1275.05 330.442C1277.58 333.942 1282.3 336.848 1289.22 339.15C1296.15 341.457 1306.16 343.661 1319.26 345.754C1331.18 347.536 1342.27 349.916 1352.53 352.9C1362.81 355.874 1371.78 359.931 1379.45 365.067C1387.11 370.192 1393.1 376.817 1397.43 384.942C1401.74 393.056 1403.91 403.213 1403.91 415.421C1403.91 432.244 1399.7 446.202 1391.28 457.296C1382.86 468.379 1371.4 476.681 1356.89 482.192C1342.37 487.692 1325.89 490.442 1307.43 490.442Z" fill="black"/>
<path d="M1649.08 483.525H1588.33L1528.7 380.129L1492.53 419.65V483.525H1438.49V169.109H1492.53V361.609L1573.37 253.963H1639.24L1568.01 344.859L1649.08 483.525Z" fill="black"/>
</g>
</g>
<defs>
<clipPath id="clip0_938_456">
<rect width="1884" height="528" fill="white"/>
</clipPath>
</defs>
</svg>
